{
    "asset" : {
        "generator" : "Khronos glTF Blender I/O v1.6.16",
        "version" : "2.0"
    },
    "scene" : 0,
    "scenes" : [
        {
            "name" : "Scene",
            "nodes" : [
                0
            ]
        }
    ],
    "nodes" : [
        {
            "mesh" : 0,
            "name" : "Sphere"
        }
    ],
    "meshes" : [
        {
            "name" : "Sphere",
            "primitives" : [
                {
                    "attributes" : {
                        "POSITION" : 0,
                        "NORMAL" : 1,
                        "TEXCOORD_0" : 2
                    },
                    "indices" : 3
                }
            ]
        }
    ],
    "accessors" : [
        {
            "bufferView" : 0,
            "componentType" : 5126,
            "count" : 2766,
            "max" : [
                2.866154670715332,
                7.753840446472168,
                0.9957336783409119
            ],
            "min" : [
                -2.8661539554595947,
                0.007037758827209473,
                -0.9957341551780701
            ],
            "type" : "VEC3"
        },
        {
            "bufferView" : 1,
            "componentType" : 5126,
            "count" : 2766,
            "type" : "VEC3"
        },
        {
            "bufferView" : 2,
            "componentType" : 5126,
            "count" : 2766,
            "type" : "VEC2"
        },
        {
            "bufferView" : 3,
            "componentType" : 5123,
            "count" : 4152,
            "type" : "SCALAR"
        }
    ],
    "bufferViews" : [
        {
            "buffer" : 0,
            "byteLength" : 33192,
            "byteOffset" : 0
        },
        {
            "buffer" : 0,
            "byteLength" : 33192,
            "byteOffset" : 33192
        },
        {
            "buffer" : 0,
            "byteLength" : 22128,
            "byteOffset" : 66384
        },
        {
            "buffer" : 0,
            "byteLength" : 8304,
            "byteOffset" : 88512
        }
    ],
    "buffers" : [
        {
            "byteLength" : 96816,
            "uri" : "data:application/octet-stream;base64,"
        }
    ]
}
