# Blender v2.93.5 OBJ File: 'buhya map.blend'
# www.blender.org
mtllib buhya map.mtl
o Cube
v 38.266113 0.538642 -38.266113
v 38.266113 -0.538642 -38.266113
v 38.266113 0.538642 38.266113
v 38.266113 -0.538642 38.266113
v -38.266113 0.538642 -38.266113
v -38.266113 -0.538642 -38.266113
v -38.266113 0.538642 38.266113
v -38.266113 -0.538642 38.266113
v -38.266113 -0.538642 -30.612890
v -38.266113 -0.538642 -22.959669
v -38.266113 -0.538642 -15.306447
v -38.266113 -0.538642 -7.653224
v -38.266113 -0.538642 0.000000
v -38.266113 -0.538642 7.653223
v -38.266113 -0.538642 15.306445
v -38.266113 -0.538642 22.959669
v -38.266113 -0.538642 30.612890
v 38.266113 0.538642 -30.612890
v 38.266113 0.538642 -22.959669
v 38.266113 0.538642 -15.306447
v 38.266113 0.538642 -7.653224
v 38.266113 0.538642 0.000000
v 38.266113 0.538642 7.653223
v 38.266113 0.538642 15.306445
v 38.266113 0.538642 22.959669
v 38.266113 0.538642 30.612890
v -38.266113 0.538642 30.612890
v -38.266113 0.538642 22.959669
v -38.266113 0.538642 15.306447
v -38.266113 0.538642 7.653224
v -38.266113 0.538642 0.000000
v -38.266113 0.538642 -7.653223
v -38.266113 0.538642 -15.306445
v -38.266113 0.538642 -22.959669
v -38.266113 0.538642 -30.612890
v 38.266113 -0.538642 30.612890
v 38.266113 -0.538642 22.959669
v 38.266113 -0.538642 15.306447
v 38.266113 -0.538642 7.653224
v 38.266113 -0.538642 0.000000
v 38.266113 -0.538642 -7.653223
v 38.266113 -0.538642 -15.306445
v 38.266113 -0.538642 -22.959669
v 38.266113 -0.538642 -30.612890
v 30.612890 -0.538642 -38.266113
v 22.959669 -0.538642 -38.266113
v 15.306447 -0.538642 -38.266113
v 7.653224 -0.538642 -38.266113
v 0.000000 -0.538642 -38.266113
v -7.653223 -0.538642 -38.266113
v -15.306445 -0.538642 -38.266113
v -22.959669 -0.538642 -38.266113
v -30.612890 -0.538642 -38.266113
v 30.612890 0.538642 38.266113
v 22.959669 0.538642 38.266113
v 15.306447 0.538642 38.266113
v 7.653224 0.538642 38.266113
v 0.000000 0.538642 38.266113
v -7.653223 0.538642 38.266113
v -15.306445 0.538642 38.266113
v -22.959669 0.538642 38.266113
v -30.612890 0.538642 38.266113
v -30.612890 -0.538642 38.266113
v -22.959669 -0.538642 38.266113
v -15.306447 -0.538642 38.266113
v -7.653224 -0.538642 38.266113
v 0.000000 -0.538642 38.266113
v 7.653223 -0.538642 38.266113
v 15.306445 -0.538642 38.266113
v 22.959669 -0.538642 38.266113
v 30.612890 -0.538642 38.266113
v -30.612890 0.538642 -38.266113
v -22.959669 0.538642 -38.266113
v -15.306447 0.538642 -38.266113
v -7.653224 0.538642 -38.266113
v 0.000000 0.538642 -38.266113
v 7.653223 0.538642 -38.266113
v 15.306445 0.538642 -38.266113
v 22.959669 0.538642 -38.266113
v 30.612890 0.538642 -38.266113
v 30.612890 -0.538642 -30.612890
v 22.959669 -0.538642 -30.612890
v 15.306447 -0.538642 -30.612890
v 7.653224 -0.538642 -30.612890
v 0.000000 -0.538642 -30.612890
v -7.653223 -0.538642 -30.612890
v -15.306445 -0.538642 -30.612890
v -22.959669 -0.538642 -30.612890
v -30.612890 -0.538642 -30.612890
v 30.612890 -0.538642 -22.959669
v 22.959669 -0.538642 -22.959669
v 15.306447 -0.538642 -22.959669
v 7.653224 -0.538642 -22.959669
v 0.000000 -0.538642 -22.959669
v -7.653223 -0.538642 -22.959669
v -15.306445 -0.538642 -22.959669
v -22.959669 -0.538642 -22.959669
v -30.612890 -0.538642 -22.959669
v 30.612890 -0.538642 -15.306445
v 22.959669 -0.538642 -15.306445
v 15.306447 -0.538642 -15.306445
v 7.653224 -0.538642 -15.306445
v 0.000000 -0.538642 -15.306445
v -7.653223 -0.538642 -15.306445
v -15.306445 -0.538642 -15.306445
v -22.959669 -0.538642 -15.306445
v -30.612890 -0.538642 -15.306447
v 30.612890 -0.538642 -7.653223
v 22.959669 -0.538642 -7.653223
v 15.306447 -0.538642 -7.653223
v 7.653224 -0.538642 -7.653223
v 0.000000 -0.538642 -7.653223
v -7.653223 -0.538642 -7.653223
v -15.306445 -0.538642 -7.653223
v -22.959669 -0.538642 -7.653223
v -30.612890 -0.538642 -7.653224
v 30.612890 -0.538642 0.000000
v 22.959669 -0.538642 0.000000
v 15.306447 -0.538642 0.000000
v 7.653224 -0.538642 0.000000
v 0.000000 -0.538642 0.000000
v -7.653223 -0.538642 0.000000
v -15.306445 -0.538642 0.000000
v -22.959669 -0.538642 0.000000
v -30.612890 -0.538642 0.000000
v 30.612890 -0.538642 7.653224
v 22.959669 -0.538642 7.653224
v 15.306447 -0.538642 7.653224
v 7.653224 -0.538642 7.653224
v 0.000000 -0.538642 7.653224
v -7.653223 -0.538642 7.653224
v -15.306445 -0.538642 7.653224
v -22.959669 -0.538642 7.653224
v -30.612890 -0.538642 7.653224
v 30.612890 -0.538642 15.306447
v 22.959669 -0.538642 15.306447
v 15.306447 -0.538642 15.306447
v 7.653224 -0.538642 15.306447
v 0.000000 -0.538642 15.306447
v -7.653223 -0.538642 15.306447
v -15.306445 -0.538642 15.306447
v -22.959669 -0.538642 15.306447
v -30.612890 -0.538642 15.306447
v 30.612890 -0.538642 22.959669
v 22.959669 -0.538642 22.959669
v 15.306447 -0.538642 22.959669
v 7.653224 -0.538642 22.959669
v 0.000000 -0.538642 22.959669
v -7.653223 -0.538642 22.959669
v -15.306445 -0.538642 22.959669
v -22.959669 -0.538642 22.959669
v -30.612890 -0.538642 22.959669
v 30.612890 -0.538642 30.612890
v 22.959669 -0.538642 30.612890
v 15.306447 -0.538642 30.612890
v 7.653224 -0.538642 30.612890
v 0.000000 -0.538642 30.612890
v -7.653223 -0.538642 30.612890
v -15.306445 -0.538642 30.612890
v -22.959669 -0.538642 30.612890
v -30.612890 -0.538642 30.612890
v -30.612890 0.538642 -30.612890
v -22.959669 0.538642 -30.612890
v -15.306447 0.538642 -30.612890
v -7.653224 0.538642 -30.612890
v 0.000000 0.538642 -30.612890
v 7.653223 0.538642 -30.612890
v 15.306445 0.538642 -30.612890
v 22.959669 0.538642 -30.612890
v 30.612890 0.538642 -30.612890
v -30.612890 0.538642 -22.959669
v -22.959669 0.538642 -22.959669
v -15.306447 0.538642 -22.959669
v -7.653224 0.538642 -22.959669
v 0.000000 0.538642 -22.959669
v 7.653223 0.538642 -22.959669
v 15.306445 0.538642 -22.959669
v 22.959669 0.538642 -22.959669
v 30.612890 0.538642 -22.959669
v -30.612890 0.538642 -15.306445
v -22.959669 0.538642 -15.306445
v -15.306447 0.538642 -15.306445
v -7.653224 0.538642 -15.306445
v 0.000000 0.538642 -15.306445
v 7.653223 0.538642 -15.306445
v 15.306445 0.538642 -15.306445
v 22.959669 0.538642 -15.306445
v 30.612890 0.538642 -15.306447
v -30.612890 0.538642 -7.653223
v -22.959669 0.538642 -7.653223
v -15.306447 0.538642 -7.653223
v -7.653224 0.538642 -7.653223
v 0.000000 0.538642 -7.653223
v 7.653223 0.538642 -7.653223
v 15.306445 0.538642 -7.653223
v 22.959669 0.538642 -7.653223
v 30.612890 0.538642 -7.653224
v -30.612890 0.538642 0.000000
v -22.959669 0.538642 0.000000
v -15.306447 0.538642 0.000000
v -7.653224 0.538642 0.000000
v 0.000000 0.538642 0.000000
v 7.653223 0.538642 0.000000
v 15.306445 0.538642 0.000000
v 22.959669 0.538642 0.000000
v 30.612890 0.538642 0.000000
v -30.612890 0.538642 7.653224
v -22.959669 0.538642 7.653224
v -15.306447 0.538642 7.653224
v -7.653224 0.538642 7.653224
v 0.000000 0.538642 7.653224
v 7.653223 0.538642 7.653224
v 15.306445 0.538642 7.653224
v 22.959669 0.538642 7.653224
v 30.612890 0.538642 7.653224
v -30.612890 0.538642 15.306447
v -22.959669 0.538642 15.306447
v -15.306447 0.538642 15.306447
v -7.653224 0.538642 15.306447
v 0.000000 0.538642 15.306447
v 7.653223 0.538642 15.306447
v 15.306445 0.538642 15.306447
v 22.959669 0.538642 15.306447
v 30.612890 0.538642 15.306447
v -30.612890 0.538642 22.959669
v -22.959669 0.538642 22.959669
v -15.306447 0.538642 22.959669
v -7.653224 0.538642 22.959669
v 0.000000 0.538642 22.959669
v 7.653223 0.538642 22.959669
v 15.306445 0.538642 22.959669
v 22.959669 0.538642 22.959669
v 30.612890 0.538642 22.959669
v -30.612890 0.538642 30.612890
v -22.959669 0.538642 30.612890
v -15.306447 0.538642 30.612890
v -7.653224 0.538642 30.612890
v 0.000000 0.538642 30.612890
v 7.653223 0.538642 30.612890
v 15.306445 0.538642 30.612890
v 22.959669 0.538642 30.612890
v 30.612890 0.538642 30.612890
vt 0.375000 0.975000
vt 0.625000 0.975000
vt 0.625000 1.000000
vt 0.375000 1.000000
vt 0.375000 0.225000
vt 0.625000 0.225000
vt 0.625000 0.250000
vt 0.375000 0.250000
vt 0.350000 0.725000
vt 0.375000 0.725000
vt 0.375000 0.750000
vt 0.350000 0.750000
vt 0.625000 0.725000
vt 0.625000 0.750000
vt 0.375000 0.475000
vt 0.625000 0.475000
vt 0.625000 0.500000
vt 0.375000 0.500000
vt 0.625000 0.525000
vt 0.375000 0.525000
vt 0.625000 0.550000
vt 0.375000 0.550000
vt 0.625000 0.575000
vt 0.375000 0.575000
vt 0.625000 0.600000
vt 0.375000 0.600000
vt 0.625000 0.625000
vt 0.375000 0.625000
vt 0.625000 0.650000
vt 0.375000 0.650000
vt 0.625000 0.675000
vt 0.375000 0.675000
vt 0.625000 0.700000
vt 0.375000 0.700000
vt 0.350000 0.500000
vt 0.350000 0.525000
vt 0.350000 0.550000
vt 0.350000 0.575000
vt 0.350000 0.600000
vt 0.350000 0.625000
vt 0.350000 0.650000
vt 0.350000 0.675000
vt 0.350000 0.700000
vt 0.375000 0.000000
vt 0.625000 0.000000
vt 0.625000 0.025000
vt 0.375000 0.025000
vt 0.625000 0.050000
vt 0.375000 0.050000
vt 0.625000 0.075000
vt 0.375000 0.075000
vt 0.625000 0.100000
vt 0.375000 0.100000
vt 0.625000 0.125000
vt 0.375000 0.125000
vt 0.625000 0.150000
vt 0.375000 0.150000
vt 0.625000 0.175000
vt 0.375000 0.175000
vt 0.625000 0.200000
vt 0.375000 0.200000
vt 0.850000 0.500000
vt 0.875000 0.500000
vt 0.875000 0.525000
vt 0.850000 0.525000
vt 0.850000 0.550000
vt 0.875000 0.550000
vt 0.875000 0.575000
vt 0.850000 0.575000
vt 0.850000 0.600000
vt 0.875000 0.600000
vt 0.875000 0.625000
vt 0.850000 0.625000
vt 0.850000 0.650000
vt 0.875000 0.650000
vt 0.875000 0.675000
vt 0.850000 0.675000
vt 0.850000 0.700000
vt 0.875000 0.700000
vt 0.875000 0.725000
vt 0.850000 0.725000
vt 0.650000 0.700000
vt 0.675000 0.700000
vt 0.675000 0.725000
vt 0.650000 0.725000
vt 0.700000 0.700000
vt 0.725000 0.700000
vt 0.725000 0.725000
vt 0.700000 0.725000
vt 0.750000 0.700000
vt 0.775000 0.700000
vt 0.775000 0.725000
vt 0.750000 0.725000
vt 0.800000 0.700000
vt 0.825000 0.700000
vt 0.825000 0.725000
vt 0.800000 0.725000
vt 0.650000 0.675000
vt 0.675000 0.675000
vt 0.700000 0.675000
vt 0.725000 0.675000
vt 0.750000 0.675000
vt 0.775000 0.675000
vt 0.800000 0.675000
vt 0.825000 0.675000
vt 0.650000 0.650000
vt 0.675000 0.650000
vt 0.700000 0.650000
vt 0.725000 0.650000
vt 0.750000 0.650000
vt 0.775000 0.650000
vt 0.800000 0.650000
vt 0.825000 0.650000
vt 0.650000 0.625000
vt 0.675000 0.625000
vt 0.700000 0.625000
vt 0.725000 0.625000
vt 0.750000 0.625000
vt 0.775000 0.625000
vt 0.800000 0.625000
vt 0.825000 0.625000
vt 0.650000 0.600000
vt 0.675000 0.600000
vt 0.700000 0.600000
vt 0.725000 0.600000
vt 0.750000 0.600000
vt 0.775000 0.600000
vt 0.800000 0.600000
vt 0.825000 0.600000
vt 0.650000 0.575000
vt 0.675000 0.575000
vt 0.700000 0.575000
vt 0.725000 0.575000
vt 0.750000 0.575000
vt 0.775000 0.575000
vt 0.800000 0.575000
vt 0.825000 0.575000
vt 0.650000 0.550000
vt 0.675000 0.550000
vt 0.700000 0.550000
vt 0.725000 0.550000
vt 0.750000 0.550000
vt 0.775000 0.550000
vt 0.800000 0.550000
vt 0.825000 0.550000
vt 0.650000 0.525000
vt 0.675000 0.525000
vt 0.700000 0.525000
vt 0.725000 0.525000
vt 0.750000 0.525000
vt 0.775000 0.525000
vt 0.800000 0.525000
vt 0.825000 0.525000
vt 0.650000 0.500000
vt 0.675000 0.500000
vt 0.700000 0.500000
vt 0.725000 0.500000
vt 0.750000 0.500000
vt 0.775000 0.500000
vt 0.800000 0.500000
vt 0.825000 0.500000
vt 0.125000 0.700000
vt 0.150000 0.700000
vt 0.150000 0.725000
vt 0.125000 0.725000
vt 0.175000 0.700000
vt 0.175000 0.725000
vt 0.200000 0.700000
vt 0.200000 0.725000
vt 0.225000 0.700000
vt 0.225000 0.725000
vt 0.250000 0.700000
vt 0.250000 0.725000
vt 0.275000 0.700000
vt 0.275000 0.725000
vt 0.300000 0.700000
vt 0.300000 0.725000
vt 0.325000 0.700000
vt 0.325000 0.725000
vt 0.125000 0.675000
vt 0.150000 0.675000
vt 0.175000 0.675000
vt 0.200000 0.675000
vt 0.225000 0.675000
vt 0.250000 0.675000
vt 0.275000 0.675000
vt 0.300000 0.675000
vt 0.325000 0.675000
vt 0.125000 0.650000
vt 0.150000 0.650000
vt 0.175000 0.650000
vt 0.200000 0.650000
vt 0.225000 0.650000
vt 0.250000 0.650000
vt 0.275000 0.650000
vt 0.300000 0.650000
vt 0.325000 0.650000
vt 0.125000 0.625000
vt 0.150000 0.625000
vt 0.175000 0.625000
vt 0.200000 0.625000
vt 0.225000 0.625000
vt 0.250000 0.625000
vt 0.275000 0.625000
vt 0.300000 0.625000
vt 0.325000 0.625000
vt 0.125000 0.600000
vt 0.150000 0.600000
vt 0.175000 0.600000
vt 0.200000 0.600000
vt 0.225000 0.600000
vt 0.250000 0.600000
vt 0.275000 0.600000
vt 0.300000 0.600000
vt 0.325000 0.600000
vt 0.125000 0.575000
vt 0.150000 0.575000
vt 0.175000 0.575000
vt 0.200000 0.575000
vt 0.225000 0.575000
vt 0.250000 0.575000
vt 0.275000 0.575000
vt 0.300000 0.575000
vt 0.325000 0.575000
vt 0.125000 0.550000
vt 0.150000 0.550000
vt 0.175000 0.550000
vt 0.200000 0.550000
vt 0.225000 0.550000
vt 0.250000 0.550000
vt 0.275000 0.550000
vt 0.300000 0.550000
vt 0.325000 0.550000
vt 0.125000 0.525000
vt 0.150000 0.525000
vt 0.175000 0.525000
vt 0.200000 0.525000
vt 0.225000 0.525000
vt 0.250000 0.525000
vt 0.275000 0.525000
vt 0.300000 0.525000
vt 0.325000 0.525000
vt 0.125000 0.500000
vt 0.150000 0.500000
vt 0.175000 0.500000
vt 0.200000 0.500000
vt 0.225000 0.500000
vt 0.250000 0.500000
vt 0.275000 0.500000
vt 0.300000 0.500000
vt 0.325000 0.500000
vt 0.625000 0.275000
vt 0.375000 0.275000
vt 0.625000 0.300000
vt 0.375000 0.300000
vt 0.625000 0.325000
vt 0.375000 0.325000
vt 0.625000 0.350000
vt 0.375000 0.350000
vt 0.625000 0.375000
vt 0.375000 0.375000
vt 0.625000 0.400000
vt 0.375000 0.400000
vt 0.625000 0.425000
vt 0.375000 0.425000
vt 0.625000 0.450000
vt 0.375000 0.450000
vt 0.150000 0.750000
vt 0.125000 0.750000
vt 0.175000 0.750000
vt 0.200000 0.750000
vt 0.225000 0.750000
vt 0.250000 0.750000
vt 0.275000 0.750000
vt 0.300000 0.750000
vt 0.325000 0.750000
vt 0.625000 0.775000
vt 0.375000 0.775000
vt 0.625000 0.800000
vt 0.375000 0.800000
vt 0.625000 0.825000
vt 0.375000 0.825000
vt 0.625000 0.850000
vt 0.375000 0.850000
vt 0.625000 0.875000
vt 0.375000 0.875000
vt 0.625000 0.900000
vt 0.375000 0.900000
vt 0.625000 0.925000
vt 0.375000 0.925000
vt 0.625000 0.950000
vt 0.375000 0.950000
vt 0.650000 0.750000
vt 0.700000 0.750000
vt 0.675000 0.750000
vt 0.750000 0.750000
vt 0.725000 0.750000
vt 0.800000 0.750000
vt 0.775000 0.750000
vt 0.850000 0.750000
vt 0.825000 0.750000
vt 0.875000 0.750000
vn 0.0000 0.0000 1.0000
vn -1.0000 0.0000 0.0000
vn 0.0000 -1.0000 0.0000
vn 1.0000 0.0000 0.0000
vn 0.0000 0.0000 -1.0000
vn 0.0000 1.0000 0.0000
usemtl Material
s off
f 63/1/1 62/2/1 7/3/1 8/4/1
f 9/5/2 35/6/2 5/7/2 6/8/2
f 153/9/3 36/10/3 4/11/3 71/12/3
f 36/10/4 26/13/4 3/14/4 4/11/4
f 45/15/5 80/16/5 1/17/5 2/18/5
f 2/18/4 1/17/4 18/19/4 44/20/4
f 44/20/4 18/19/4 19/21/4 43/22/4
f 43/22/4 19/21/4 20/23/4 42/24/4
f 42/24/4 20/23/4 21/25/4 41/26/4
f 41/26/4 21/25/4 22/27/4 40/28/4
f 40/28/4 22/27/4 23/29/4 39/30/4
f 39/30/4 23/29/4 24/31/4 38/32/4
f 38/32/4 24/31/4 25/33/4 37/34/4
f 37/34/4 25/33/4 26/13/4 36/10/4
f 45/35/3 2/18/3 44/20/3 81/36/3
f 81/36/3 44/20/3 43/22/3 90/37/3
f 90/37/3 43/22/3 42/24/3 99/38/3
f 99/38/3 42/24/3 41/26/3 108/39/3
f 108/39/3 41/26/3 40/28/3 117/40/3
f 117/40/3 40/28/3 39/30/3 126/41/3
f 126/41/3 39/30/3 38/32/3 135/42/3
f 135/42/3 38/32/3 37/34/3 144/43/3
f 144/43/3 37/34/3 36/10/3 153/9/3
f 8/44/2 7/45/2 27/46/2 17/47/2
f 17/47/2 27/46/2 28/48/2 16/49/2
f 16/49/2 28/48/2 29/50/2 15/51/2
f 15/51/2 29/50/2 30/52/2 14/53/2
f 14/53/2 30/52/2 31/54/2 13/55/2
f 13/55/2 31/54/2 32/56/2 12/57/2
f 12/57/2 32/56/2 33/58/2 11/59/2
f 11/59/2 33/58/2 34/60/2 10/61/2
f 10/61/2 34/60/2 35/6/2 9/5/2
f 72/62/6 5/63/6 35/64/6 162/65/6
f 171/66/6 34/67/6 33/68/6 180/69/6
f 189/70/6 32/71/6 31/72/6 198/73/6
f 207/74/6 30/75/6 29/76/6 216/77/6
f 225/78/6 28/79/6 27/80/6 234/81/6
f 233/82/6 232/83/6 241/84/6 242/85/6
f 231/86/6 230/87/6 239/88/6 240/89/6
f 229/90/6 228/91/6 237/92/6 238/93/6
f 227/94/6 226/95/6 235/96/6 236/97/6
f 24/31/6 224/98/6 233/82/6 25/33/6
f 223/99/6 222/100/6 231/86/6 232/83/6
f 221/101/6 220/102/6 229/90/6 230/87/6
f 219/103/6 218/104/6 227/94/6 228/91/6
f 217/105/6 216/77/6 225/78/6 226/95/6
f 215/106/6 214/107/6 223/99/6 224/98/6
f 213/108/6 212/109/6 221/101/6 222/100/6
f 211/110/6 210/111/6 219/103/6 220/102/6
f 209/112/6 208/113/6 217/105/6 218/104/6
f 22/27/6 206/114/6 215/106/6 23/29/6
f 205/115/6 204/116/6 213/108/6 214/107/6
f 203/117/6 202/118/6 211/110/6 212/109/6
f 201/119/6 200/120/6 209/112/6 210/111/6
f 199/121/6 198/73/6 207/74/6 208/113/6
f 197/122/6 196/123/6 205/115/6 206/114/6
f 195/124/6 194/125/6 203/117/6 204/116/6
f 193/126/6 192/127/6 201/119/6 202/118/6
f 191/128/6 190/129/6 199/121/6 200/120/6
f 20/23/6 188/130/6 197/122/6 21/25/6
f 187/131/6 186/132/6 195/124/6 196/123/6
f 185/133/6 184/134/6 193/126/6 194/125/6
f 183/135/6 182/136/6 191/128/6 192/127/6
f 181/137/6 180/69/6 189/70/6 190/129/6
f 179/138/6 178/139/6 187/131/6 188/130/6
f 177/140/6 176/141/6 185/133/6 186/132/6
f 175/142/6 174/143/6 183/135/6 184/134/6
f 173/144/6 172/145/6 181/137/6 182/136/6
f 18/19/6 170/146/6 179/138/6 19/21/6
f 169/147/6 168/148/6 177/140/6 178/139/6
f 167/149/6 166/150/6 175/142/6 176/141/6
f 165/151/6 164/152/6 173/144/6 174/143/6
f 163/153/6 162/65/6 171/66/6 172/145/6
f 80/154/6 79/155/6 169/147/6 170/146/6
f 78/156/6 77/157/6 167/149/6 168/148/6
f 76/158/6 75/159/6 165/151/6 166/150/6
f 74/160/6 73/161/6 163/153/6 164/152/6
f 16/162/3 152/163/3 161/164/3 17/165/3
f 152/163/3 151/166/3 160/167/3 161/164/3
f 151/166/3 150/168/3 159/169/3 160/167/3
f 150/168/3 149/170/3 158/171/3 159/169/3
f 149/170/3 148/172/3 157/173/3 158/171/3
f 148/172/3 147/174/3 156/175/3 157/173/3
f 147/174/3 146/176/3 155/177/3 156/175/3
f 146/176/3 145/178/3 154/179/3 155/177/3
f 145/178/3 144/43/3 153/9/3 154/179/3
f 15/180/3 143/181/3 152/163/3 16/162/3
f 143/181/3 142/182/3 151/166/3 152/163/3
f 142/182/3 141/183/3 150/168/3 151/166/3
f 141/183/3 140/184/3 149/170/3 150/168/3
f 140/184/3 139/185/3 148/172/3 149/170/3
f 139/185/3 138/186/3 147/174/3 148/172/3
f 138/186/3 137/187/3 146/176/3 147/174/3
f 137/187/3 136/188/3 145/178/3 146/176/3
f 136/188/3 135/42/3 144/43/3 145/178/3
f 14/189/3 134/190/3 143/181/3 15/180/3
f 134/190/3 133/191/3 142/182/3 143/181/3
f 133/191/3 132/192/3 141/183/3 142/182/3
f 132/192/3 131/193/3 140/184/3 141/183/3
f 131/193/3 130/194/3 139/185/3 140/184/3
f 130/194/3 129/195/3 138/186/3 139/185/3
f 129/195/3 128/196/3 137/187/3 138/186/3
f 128/196/3 127/197/3 136/188/3 137/187/3
f 127/197/3 126/41/3 135/42/3 136/188/3
f 13/198/3 125/199/3 134/190/3 14/189/3
f 125/199/3 124/200/3 133/191/3 134/190/3
f 124/200/3 123/201/3 132/192/3 133/191/3
f 123/201/3 122/202/3 131/193/3 132/192/3
f 122/202/3 121/203/3 130/194/3 131/193/3
f 121/203/3 120/204/3 129/195/3 130/194/3
f 120/204/3 119/205/3 128/196/3 129/195/3
f 119/205/3 118/206/3 127/197/3 128/196/3
f 118/206/3 117/40/3 126/41/3 127/197/3
f 12/207/3 116/208/3 125/199/3 13/198/3
f 116/208/3 115/209/3 124/200/3 125/199/3
f 115/209/3 114/210/3 123/201/3 124/200/3
f 114/210/3 113/211/3 122/202/3 123/201/3
f 113/211/3 112/212/3 121/203/3 122/202/3
f 112/212/3 111/213/3 120/204/3 121/203/3
f 111/213/3 110/214/3 119/205/3 120/204/3
f 110/214/3 109/215/3 118/206/3 119/205/3
f 109/215/3 108/39/3 117/40/3 118/206/3
f 11/216/3 107/217/3 116/208/3 12/207/3
f 107/217/3 106/218/3 115/209/3 116/208/3
f 106/218/3 105/219/3 114/210/3 115/209/3
f 105/219/3 104/220/3 113/211/3 114/210/3
f 104/220/3 103/221/3 112/212/3 113/211/3
f 103/221/3 102/222/3 111/213/3 112/212/3
f 102/222/3 101/223/3 110/214/3 111/213/3
f 101/223/3 100/224/3 109/215/3 110/214/3
f 100/224/3 99/38/3 108/39/3 109/215/3
f 10/225/3 98/226/3 107/217/3 11/216/3
f 98/226/3 97/227/3 106/218/3 107/217/3
f 97/227/3 96/228/3 105/219/3 106/218/3
f 96/228/3 95/229/3 104/220/3 105/219/3
f 95/229/3 94/230/3 103/221/3 104/220/3
f 94/230/3 93/231/3 102/222/3 103/221/3
f 93/231/3 92/232/3 101/223/3 102/222/3
f 92/232/3 91/233/3 100/224/3 101/223/3
f 91/233/3 90/37/3 99/38/3 100/224/3
f 9/234/3 89/235/3 98/226/3 10/225/3
f 89/235/3 88/236/3 97/227/3 98/226/3
f 88/236/3 87/237/3 96/228/3 97/227/3
f 87/237/3 86/238/3 95/229/3 96/228/3
f 86/238/3 85/239/3 94/230/3 95/229/3
f 85/239/3 84/240/3 93/231/3 94/230/3
f 84/240/3 83/241/3 92/232/3 93/231/3
f 83/241/3 82/242/3 91/233/3 92/232/3
f 82/242/3 81/36/3 90/37/3 91/233/3
f 6/243/3 53/244/3 89/235/3 9/234/3
f 53/244/3 52/245/3 88/236/3 89/235/3
f 52/245/3 51/246/3 87/237/3 88/236/3
f 51/246/3 50/247/3 86/238/3 87/237/3
f 50/247/3 49/248/3 85/239/3 86/238/3
f 49/248/3 48/249/3 84/240/3 85/239/3
f 48/249/3 47/250/3 83/241/3 84/240/3
f 47/250/3 46/251/3 82/242/3 83/241/3
f 46/251/3 45/35/3 81/36/3 82/242/3
f 6/8/5 5/7/5 72/252/5 53/253/5
f 53/253/5 72/252/5 73/254/5 52/255/5
f 52/255/5 73/254/5 74/256/5 51/257/5
f 51/257/5 74/256/5 75/258/5 50/259/5
f 50/259/5 75/258/5 76/260/5 49/261/5
f 49/261/5 76/260/5 77/262/5 48/263/5
f 48/263/5 77/262/5 78/264/5 47/265/5
f 47/265/5 78/264/5 79/266/5 46/267/5
f 46/267/5 79/266/5 80/16/5 45/15/5
f 17/165/3 161/164/3 63/268/3 8/269/3
f 161/164/3 160/167/3 64/270/3 63/268/3
f 160/167/3 159/169/3 65/271/3 64/270/3
f 159/169/3 158/171/3 66/272/3 65/271/3
f 158/171/3 157/173/3 67/273/3 66/272/3
f 157/173/3 156/175/3 68/274/3 67/273/3
f 156/175/3 155/177/3 69/275/3 68/274/3
f 155/177/3 154/179/3 70/276/3 69/275/3
f 154/179/3 153/9/3 71/12/3 70/276/3
f 4/11/1 3/14/1 54/277/1 71/278/1
f 71/278/1 54/277/1 55/279/1 70/280/1
f 70/280/1 55/279/1 56/281/1 69/282/1
f 69/282/1 56/281/1 57/283/1 68/284/1
f 68/284/1 57/283/1 58/285/1 67/286/1
f 67/286/1 58/285/1 59/287/1 66/288/1
f 66/288/1 59/287/1 60/289/1 65/290/1
f 65/290/1 60/289/1 61/291/1 64/292/1
f 64/292/1 61/291/1 62/2/1 63/1/1
f 26/13/6 242/85/6 54/293/6 3/14/6
f 241/84/6 240/89/6 56/294/6 55/295/6
f 239/88/6 238/93/6 58/296/6 57/297/6
f 237/92/6 236/97/6 60/298/6 59/299/6
f 235/96/6 234/81/6 62/300/6 61/301/6
usemtl Material.001
f 234/81/6 27/80/6 7/302/6 62/300/6
f 162/65/6 35/64/6 34/67/6 171/66/6
f 180/69/6 33/68/6 32/71/6 189/70/6
f 198/73/6 31/72/6 30/75/6 207/74/6
f 216/77/6 29/76/6 28/79/6 225/78/6
f 25/33/6 233/82/6 242/85/6 26/13/6
f 232/83/6 231/86/6 240/89/6 241/84/6
f 230/87/6 229/90/6 238/93/6 239/88/6
f 228/91/6 227/94/6 236/97/6 237/92/6
f 226/95/6 225/78/6 234/81/6 235/96/6
f 224/98/6 223/99/6 232/83/6 233/82/6
f 222/100/6 221/101/6 230/87/6 231/86/6
f 220/102/6 219/103/6 228/91/6 229/90/6
f 218/104/6 217/105/6 226/95/6 227/94/6
f 23/29/6 215/106/6 224/98/6 24/31/6
f 214/107/6 213/108/6 222/100/6 223/99/6
f 212/109/6 211/110/6 220/102/6 221/101/6
f 210/111/6 209/112/6 218/104/6 219/103/6
f 208/113/6 207/74/6 216/77/6 217/105/6
f 206/114/6 205/115/6 214/107/6 215/106/6
f 204/116/6 203/117/6 212/109/6 213/108/6
f 202/118/6 201/119/6 210/111/6 211/110/6
f 200/120/6 199/121/6 208/113/6 209/112/6
f 21/25/6 197/122/6 206/114/6 22/27/6
f 196/123/6 195/124/6 204/116/6 205/115/6
f 194/125/6 193/126/6 202/118/6 203/117/6
f 192/127/6 191/128/6 200/120/6 201/119/6
f 190/129/6 189/70/6 198/73/6 199/121/6
f 188/130/6 187/131/6 196/123/6 197/122/6
f 186/132/6 185/133/6 194/125/6 195/124/6
f 184/134/6 183/135/6 192/127/6 193/126/6
f 182/136/6 181/137/6 190/129/6 191/128/6
f 19/21/6 179/138/6 188/130/6 20/23/6
f 178/139/6 177/140/6 186/132/6 187/131/6
f 176/141/6 175/142/6 184/134/6 185/133/6
f 174/143/6 173/144/6 182/136/6 183/135/6
f 172/145/6 171/66/6 180/69/6 181/137/6
f 170/146/6 169/147/6 178/139/6 179/138/6
f 168/148/6 167/149/6 176/141/6 177/140/6
f 166/150/6 165/151/6 174/143/6 175/142/6
f 164/152/6 163/153/6 172/145/6 173/144/6
f 1/17/6 80/154/6 170/146/6 18/19/6
f 79/155/6 78/156/6 168/148/6 169/147/6
f 77/157/6 76/158/6 166/150/6 167/149/6
f 75/159/6 74/160/6 164/152/6 165/151/6
f 73/161/6 72/62/6 162/65/6 163/153/6
f 242/85/6 241/84/6 55/295/6 54/293/6
f 240/89/6 239/88/6 57/297/6 56/294/6
f 238/93/6 237/92/6 59/299/6 58/296/6
f 236/97/6 235/96/6 61/301/6 60/298/6
